# xmcd CD database file
#
# Track frame offsets:
#	150
#	28870
#	46370
#	67650
#	84052
#	107182
#	119032
#	130482
#	159870
#	193920
#
# Disc length: 2941 seconds
#
# Revision: 0
# Processed by: cddbd v1.5.1PL0 Copyright (c) Steve Scherf et al.
# Submitted via: CDex 1.51
#
DISCID=830b7b0a
DTITLE=Lionel Hampton - Live In Vienna, Vol. 2
DYEAR=1954
DGENRE=Jazz
TTITLE0=Our Love Is Here to Stay
TTITLE1=Midnight Sun
TTITLE2=September in the Rain
TTITLE3=Red Light Blues
TTITLE4=Sonny Parker (Vocal Number)
TTITLE5=Mambo
TTITLE6=Flying Home
TTITLE7=Hamp's Boogie Woogie
TTITLE8=Hey! Ba Ba Re Bop
TTITLE9=Air Mail Special
EXTD=YEAR: 1954
EXTT0=
EXTT1=
EXTT2=
EXTT3=
EXTT4=
EXTT5=
EXTT6=
EXTT7=
EXTT8=
EXTT9=
PLAYORDER=
